<svg width="40" height="40" viewBox="0 0 40 40" fill="none" xmlns="http://www.w3.org/2000/svg">
<path d="M20 0.5C30.7696 0.5 39.5 9.23045 39.5 20C39.5 30.7696 30.7696 39.5 20 39.5C9.23045 39.5 0.5 30.7696 0.5 20C0.5 9.23045 9.23045 0.5 20 0.5Z" fill="white"/>
<path d="M20 0.5C30.7696 0.5 39.5 9.23045 39.5 20C39.5 30.7696 30.7696 39.5 20 39.5C9.23045 39.5 0.5 30.7696 0.5 20C0.5 9.23045 9.23045 0.5 20 0.5Z" stroke="#B5B5B5"/>
<path d="M32 22.6253C30.4846 23.4345 28.7539 23.8932 26.916 23.8932C20.9463 23.8932 16.1068 19.0537 16.1068 13.084C16.1068 11.2461 16.5655 9.51539 17.3747 8C12.0012 9.25935 8 14.0823 8 19.8397C8 26.5557 13.4443 32 20.1603 32C25.9177 32 30.7407 27.9988 32 22.6253Z" stroke="#141B34" stroke-width="1.5" stroke-linecap="round" stroke-linejoin="round"/>
</svg>
